<svg id="Layer_1" data-name="Layer 1" xmlns="http://www.w3.org/2000/svg" viewBox="0 0 1280 1024"><defs><style>.cls-1{fill:#33dbd9;}.cls-1,.cls-4{stroke:#666;stroke-miterlimit:10;stroke-width:4px;}.cls-2{fill:#e6e7e8;}.cls-3{fill:#f1ff2e;}.cls-4{fill:#808384;}</style></defs><title>Artboard 1</title><rect class="cls-1" x="-4" y="-1" width="1280" height="1024"/><polygon class="cls-2" points="151.338 215.572 188.572 151.082 225.805 215.572 151.338 215.572"/><ellipse class="cls-3" cx="233.6742" cy="258.053" rx="18.1742" ry="18.447"/><path class="cls-4" d="M134.2121,235.0909l63.6364,45.4545Z"/><polygon class="cls-2" points="465.124 318.125 520.232 368.209 449.303 390.891 465.124 318.125"/><ellipse class="cls-3" cx="406.1202" cy="389.5557" rx="18.1742" ry="18.447" transform="translate(-60.8236 703.643) rotate(-77.7339)"/><path class="cls-4" d="M449.689,297.2425l-57.9365,52.5267Z"/><polygon class="cls-2" points="483.338 86.572 520.572 22.082 557.805 86.572 483.338 86.572"/><ellipse class="cls-3" cx="565.6742" cy="129.053" rx="18.1742" ry="18.447"/><path class="cls-4" d="M466.2121,106.0909l63.6364,45.4545Z"/><polygon class="cls-2" points="250.338 510.572 287.572 446.082 324.805 510.572 250.338 510.572"/><ellipse class="cls-3" cx="332.6742" cy="553.053" rx="18.1742" ry="18.447"/><path class="cls-4" d="M233.2121,530.0909l63.6364,45.4545Z"/><polygon class="cls-2" points="912.338 291.572 949.572 227.082 986.805 291.572 912.338 291.572"/><ellipse class="cls-3" cx="994.6742" cy="334.053" rx="18.1742" ry="18.447"/><path class="cls-4" d="M895.2121,311.0909l63.6364,45.4545Z"/><polygon class="cls-2" points="71.338 429.572 108.572 365.082 145.805 429.572 71.338 429.572"/><ellipse class="cls-3" cx="153.6742" cy="472.053" rx="18.1742" ry="18.447"/><path class="cls-4" d="M54.2121,449.0909l63.6364,45.4545Z"/><polygon class="cls-2" points="780.338 136.572 817.572 72.082 854.805 136.572 780.338 136.572"/><ellipse class="cls-3" cx="862.6742" cy="179.053" rx="18.1742" ry="18.447"/><path class="cls-4" d="M763.2121,156.0909l63.6364,45.4545Z"/><polygon class="cls-2" points="916.338 817.572 953.572 753.082 990.805 817.572 916.338 817.572"/><ellipse class="cls-3" cx="998.6742" cy="860.053" rx="18.1742" ry="18.447"/><path class="cls-4" d="M899.2121,837.0909l63.6364,45.4545Z"/><polygon class="cls-2" points="1092.338 79.572 1129.572 15.082 1166.805 79.572 1092.338 79.572"/><ellipse class="cls-3" cx="1174.6742" cy="122.053" rx="18.1742" ry="18.447"/><path class="cls-4" d="M1075.2121,99.0909l63.6364,45.4545Z"/><polygon class="cls-2" points="1055.338 486.572 1092.572 422.082 1129.805 486.572 1055.338 486.572"/><ellipse class="cls-3" cx="1137.6742" cy="529.053" rx="18.1742" ry="18.447"/><path class="cls-4" d="M1038.2121,506.0909l63.6364,45.4545Z"/><polygon class="cls-2" points="710.586 641.931 776.196 677.153 712.887 716.362 710.586 641.931"/><ellipse class="cls-3" cx="670.6695" cy="725.54" rx="18.447" ry="18.1742" transform="translate(-22.1006 21.0718) rotate(-1.7709)"/><path class="cls-4" d="M690.547,625.4158l-43.4663,65.0106Z"/><polygon class="cls-2" points="1119.338 906.572 1156.572 842.082 1193.805 906.572 1119.338 906.572"/><ellipse class="cls-3" cx="1201.6742" cy="949.053" rx="18.1742" ry="18.447"/><path class="cls-4" d="M1102.2121,926.0909l63.6364,45.4545Z"/><polygon class="cls-2" points="1077.338 696.572 1114.572 632.082 1151.805 696.572 1077.338 696.572"/><ellipse class="cls-3" cx="1159.6742" cy="739.053" rx="18.1742" ry="18.447"/><path class="cls-4" d="M1060.2121,716.0909l63.6364,45.4545Z"/><polygon class="cls-2" points="681.325 494.523 630.93 439.699 703.606 423.468 681.325 494.523"/><ellipse class="cls-3" cx="746.4958" cy="428.6702" rx="18.1742" ry="18.447" transform="translate(114.1042 1012.7035) rotate(-72.5897)"/><path class="cls-4" d="M694.8255,516.7051l62.4129-47.12Z"/><polygon class="cls-2" points="131.338 882.572 168.572 818.082 205.805 882.572 131.338 882.572"/><ellipse class="cls-3" cx="213.6742" cy="925.053" rx="18.1742" ry="18.447"/><path class="cls-4" d="M114.2121,902.0909l63.6364,45.4545Z"/><polygon class="cls-2" points="372.804 725.531 354.958 653.234 426.492 673.927 372.804 725.531"/><ellipse class="cls-3" cx="461.604" cy="699.1013" rx="18.1742" ry="18.447" transform="translate(-355.6547 514.9572) rotate(-43.8661)"/><path class="cls-4" d="M373.9835,751.4713l77.3782-11.3275Z"/><polygon class="cls-2" points="1077.338 330.572 1114.572 266.082 1151.805 330.572 1077.338 330.572"/><ellipse class="cls-3" cx="1159.6742" cy="373.053" rx="18.1742" ry="18.447"/><path class="cls-4" d="M1060.2121,350.0909l63.6364,45.4545Z"/><polygon class="cls-2" points="335.338 183.572 372.572 119.082 409.805 183.572 335.338 183.572"/><ellipse class="cls-3" cx="417.6742" cy="226.053" rx="18.1742" ry="18.447"/><path class="cls-4" d="M318.2121,203.0909l63.6364,45.4545Z"/><polygon class="cls-2" points="903.881 427.328 971.933 457.565 911.721 501.381 903.881 427.328"/><ellipse class="cls-3" cx="870.3045" cy="513.6785" rx="18.447" ry="18.1742" transform="translate(-49.2433 94.48) rotate(-6.0433)"/><path class="cls-4" d="M882.6677,412.3517,844.1653,480.42Z"/><polygon class="cls-2" points="645.554 291.021 573.283 273.072 624.962 219.457 645.554 291.021"/><ellipse class="cls-3" cx="663.6112" cy="200.148" rx="18.447" ry="18.1742" transform="translate(-29.4695 191.3088) rotate(-16.0529)"/><path class="cls-4" d="M669.0481,302.0813l26.0851-73.7243Z"/><polygon class="cls-2" points="82.804 102.531 64.958 30.234 136.492 50.927 82.804 102.531"/><ellipse class="cls-3" cx="171.604" cy="76.1013" rx="18.1742" ry="18.447" transform="translate(-4.8521 140.1527) rotate(-43.8661)"/><path class="cls-4" d="M83.9835,128.4713l77.3782-11.3275Z"/><polygon class="cls-2" points="385.784 880.274 425.493 817.278 460.195 883.165 385.784 880.274"/><ellipse class="cls-3" cx="466.4092" cy="925.9195" rx="18.447" ry="18.1742" transform="translate(-476.9158 1356.0387) rotate(-87.7756)"/><path class="cls-4" d="M367.9133,899.1142l61.8241,47.89Z"/><polygon class="cls-2" points="763.804 949.531 745.958 877.234 817.492 897.927 763.804 949.531"/><ellipse class="cls-3" cx="852.604" cy="923.1013" rx="18.1742" ry="18.447" transform="translate(-401.777 848.4156) rotate(-43.8661)"/><path class="cls-4" d="M764.9835,975.4713l77.3782-11.3275Z"/><polygon class="cls-2" points="108.804 687.531 90.958 615.234 162.492 635.927 108.804 687.531"/><ellipse class="cls-3" cx="197.604" cy="661.1013" rx="18.1742" ry="18.447" transform="translate(-402.988 321.408) rotate(-43.8661)"/><path class="cls-4" d="M109.9835,713.4713l77.3782-11.3275Z"/><polygon class="cls-2" points="512.397 590.823 444.331 560.616 504.524 516.774 512.397 590.823"/><ellipse class="cls-3" cx="545.9354" cy="504.4577" rx="18.447" ry="18.1742" transform="translate(-50.2708 60.542) rotate(-6.0685)"/><path class="cls-4" d="M533.6168,605.79l38.4723-68.0851Z"/><polygon class="cls-2" points="935.804 159.531 917.958 87.234 989.492 107.927 935.804 159.531"/><ellipse class="cls-3" cx="1024.604" cy="133.1013" rx="18.1742" ry="18.447" transform="translate(193.6688 747.1664) rotate(-43.8661)"/><path class="cls-4" d="M936.9835,185.4713l77.3782-11.3275Z"/><polygon class="cls-2" points="844.804 679.531 826.958 607.234 898.492 627.927 844.804 679.531"/><ellipse class="cls-3" cx="933.604" cy="653.1013" rx="18.1742" ry="18.447" transform="translate(-192.0713 829.206) rotate(-43.8661)"/><path class="cls-4" d="M845.9835,705.4713l77.3782-11.3275Z"/><polygon class="cls-2" points="577.736 810.227 648.926 788.38 632.251 860.956 577.736 810.227"/><ellipse class="cls-3" cx="609.0719" cy="897.4162" rx="18.447" ry="18.1742" transform="translate(-462.8169 731.9508) rotate(-47.0601)"/><path class="cls-4" d="M551.9014,812.85l15.6211,76.6269Z"/></svg>
